<svg xmlns="http://www.w3.org/2000/svg" viewBox="0 0 183.5 50.37"><title>Asset 1</title><g id="Layer_2" data-name="Layer 2"><g id="Layer_1-2" data-name="Layer 1"><path d="M25.89,38.63c1.19-.09,3.4.16,5.4-.74,3.89-1.74,5-5.87,4.48-9.17C35.18,25,32,22.41,31.5,22.06a.38.38,0,0,0-.55.52,7.35,7.35,0,0,1,.92,4.73c-.39,3.59-3.2,5.87-4.63,7A2.11,2.11,0,0,1,24,31.91c.32-.58,1-.93,1.69-1.65a11.23,11.23,0,0,0,3.36-7,11.8,11.8,0,0,0-1.83-7.69A23.87,23.87,0,0,0,22.7,11c-.6-.55-.92-.63-.8-1.6a15.69,15.69,0,0,0-.28-5.57A11.35,11.35,0,0,0,19.8.16c-.1-.26-.54-.2-.41.17a5.05,5.05,0,0,1,.21,2.24c-.25,2.25-3,4.68-5,6.45s-4.24,3.64-5.37,6.22a11.17,11.17,0,0,0-.56,7.51c.79,3,2.29,4.15,3.48,6.19a2.61,2.61,0,0,1-1.66,4c-1.28.36-2.9-2.09-3.74-3.77-1-2.08-.95-5.58-.93-6.08a3.63,3.63,0,0,0,0-.36.25.25,0,0,0-.42-.17,2.91,2.91,0,0,0-.31.38,35.8,35.8,0,0,0-3.92,5.61,11.13,11.13,0,0,0-.75,7.73A11.28,11.28,0,0,0,4,41.88l.33.27a.47.47,0,0,0,.76-.28c.05-.3.06-.67.08-.89.13-1.24.69-1.88,2.56-2.88,2.1-1.12,6.65-2.74,8.67-2.78,1.46,0,2.71,1.27.84,4.05-1,1.44-4.27,2.62-5.06,3.7s0,3.45,2.82,5.41,6.75,1.92,8,1.86,1.15-.93,1.16-1.62,0-2.21,3.8-3.83c3.46-1.48,4.41-2.67,4.79-3.34s0-1.15-.45-.85A8.1,8.1,0,0,1,28.72,42c-2.06.31-3.17-.28-3.61-1.07S24.67,38.72,25.89,38.63Zm-5.41-9.26a1.63,1.63,0,0,1-1.16,1.84c-1.09.32-3,.44-3.32-2.5-.43-3.44-.29-7.35,1.25-10.42A25,25,0,0,1,20,14a.49.49,0,0,1,.87.14c.47,1-.29,3.72-.55,6.72A45.86,45.86,0,0,0,20.48,29.37ZM145.68,21a4.24,4.24,0,0,1,1.22,1.58c.17.53-.1.92-1,1.81-1.21,1.19-.58,2.28-1,2.64s-1.41-.23-2-1.77A3.87,3.87,0,0,1,144,21.2,1.3,1.3,0,0,1,145.68,21ZM182,33.36c-1.65-2.16-5.53-1.39-9.66,0s-8.68,4.84-10.62,5.87a2.51,2.51,0,0,1-3.59-1c-.39-.74-.05-.84,1.58-1.44s4.48-2.61,5.08-4.41,1.44-4.32-1.83-4.84A7.73,7.73,0,0,0,154.88,31a8.27,8.27,0,0,0-.74,5.94c.09.41-1.24.63-2.4.65s-.41-2.23-.05-4.08-.14-2.28-.36-2.69a49.16,49.16,0,0,0-3.45-4.48c-.72-.7-.79,1.13-2.46,4.47a13.14,13.14,0,0,1-4.9,5.52c-.74.45-1.72.86-1.06-1.46a15.4,15.4,0,0,1,2.88-5.16c.43-.43,0-1-.64-1.54s-1.17-.94-3.86,1a52.66,52.66,0,0,0-6.52,6.12c-.5.53-.65-.34.46-3.29s4.36-6.38,6.19-8.44,6.37-6,7.21-6.73.39-1.58-3-2-5.75.34-7.31,2.49a44.55,44.55,0,0,0-6.19,14.14c-1.3,5.23-2.35,6.63-3.06,6.62s-1.29-.74-1.2-3.29a8.74,8.74,0,0,1,2.27-5.37c.69-.67.52-1.34-2.09-1.83s-6.18.27-7.79,2.32a11.16,11.16,0,0,0-2,4.89A7.06,7.06,0,0,1,112.7,37c-.72.5-1.18-.65-1-3.05s1.89-4.55,2.35-5.29-1.34-.81-2.33-.81-1.65.46-2.62,1.56-3.33,4.43-3.86,5.08-1.08.88-1.12-.38A9.49,9.49,0,0,1,106,29.31a73.75,73.75,0,0,1,6-7c1.44-1.42,5.35-4.94,6.09-5.54s.16-1.24-.36-1.46a13.52,13.52,0,0,0-6.52-.5c-2.61.64-4.62,3.93-6.28,7.45a79.8,79.8,0,0,0-3.48,10.28c-.74,2.3-4.1,5-5.22,5.75s-3.38,1.17-3.53-2.13A9.3,9.3,0,0,1,95,29.46c.91-.9,2.25-.89,2.37-.25A18.29,18.29,0,0,1,96.64,33c-.16.58-.16,1.13.5.93a6.43,6.43,0,0,0,2.66-2.88,3.59,3.59,0,0,0-3.09-4.15,6.71,6.71,0,0,0-6.9,3.77C88.35,33.41,89,34.27,88,34.88a18.25,18.25,0,0,0-3.16,2.9c-.22.29-.6.26-.5-1.67a10.64,10.64,0,0,1,1.24-4.32c.48-1,2.33-3.4,2.88-4.17s2.9-4.15,3.24-4.6a.94.94,0,0,1,.87-.46c.36,0,1.89.28,4.13.58a5.48,5.48,0,0,0,4.33-.82,5.06,5.06,0,0,0,2.16-3.16c0-.73-.82-.38-2-.26s-5.53.21-6.16.22-.55-.43-.39-.69,1.72-2.54,2.09-3,.14-.89-.53-1a15.73,15.73,0,0,0-5.41.27c-1.9.55-3.29,3-3.79,3.67s-.33,1-3.62,1.25-9.37.81-10.74,1a7.07,7.07,0,0,1-2.08.19c-.22-.09-.15-.94-.15-.94.07-3.93-6.06-5.54-13.52-2.4s-10.28,8.42-11,10.4-1.77,7.59.93,11.8c2.55,4,6.92,4.66,10.54,4.89a14.66,14.66,0,0,0,7.39-1.65,4.15,4.15,0,0,0,2.51-2.8,6.32,6.32,0,0,0-.72-4,.6.6,0,0,0-1.06,0c-2.45,3.16-7.79,5.77-12,5.22s-4.08-6.14-3.47-9.2,2.47-6.3,5.65-9.54,7-4.67,8.58-4.74,1.58,1.67,1.3,3.05-.91,1.29-4.62,3.23S54.46,29,53.72,30.75s1.08,4.32,3.12,4.92,5.16-1.44,8.08-4.36a21.47,21.47,0,0,0,4.82-7.53c.41-1,2.59-1.32,6.86-1.77a31.21,31.21,0,0,1,7.89-.07c1.06.19,0,1.66-1.44,6.18s-1.15,7.46-2.68,9.75c-.74,1.12-2.25.27-2.21-2.54A8.82,8.82,0,0,1,79.88,30c.6-.74,1.09-1.28.17-1.65-3.58-1.42-7.12-.8-9.56,1.79-2.2,2.33-2,6.6-.48,8.34a5.34,5.34,0,0,0,5.41,1.29c1.22-.46,1.08-.62,1.84-.34a10.06,10.06,0,0,0,3.21.46c.49-.07.64.11.77.58a8,8,0,0,0,2,3.56c1.22,1.18,3.56,2,4,1.77s-.81-2.09-1.18-4a4.39,4.39,0,0,1,.22-2.78,3.71,3.71,0,0,1,1.9-2c.72-.21.38.26,1.6,2s3.79,1.84,6,1.36c1.86-.41,4.23-3.27,4.84-4,.37-.43.67-1,.74.12s.6,4.24,1,4.58,1.24,1.18,2.16-1.42a31.28,31.28,0,0,1,3.64-6.86c.46-.41.82-.31.65.38a20.49,20.49,0,0,0-.55,4.31c0,1.7,1.94,2.45,3.14,2.83.74.23,1.16.34,1.37.11s.06-.33.11-.69a3.92,3.92,0,0,1,1.66-2.56c1.34-.78.64,1.45,3.86,2.68a4.93,4.93,0,0,0,3.76-.43c.77-.43.62-.45,1.46,0a4.94,4.94,0,0,0,2.7.45c.65-.12,0,1,.09,5.06s5.7,6,6.09,5.44-.27-1-1.34-4.31a11.78,11.78,0,0,1,.84-8.9A16.62,16.62,0,0,1,136,32.6c.57-.39,1.36-.72.91.27A34.17,34.17,0,0,0,135,38.61c-.34,1.8,1.73,1.85,3,1.89s2.18-.65,4.5-2.83a37.68,37.68,0,0,0,4.67-5.37c.36-.57.5-.43.8-.26a2,2,0,0,1,.5,2.37,15.59,15.59,0,0,1-2.61,4.32c-.77.81-1.06,1.2,2,1.17a34.41,34.41,0,0,0,6.68-.89c.48-.1.45-.24,1.71,1.2s2.45,1.56,4.75,1.15,4.84-2.47,9-3.77,8.13-1.66,10.28-1.25,2.37,1.54,3,1.32S183.65,35.52,182,33.36Zm-49.37-6.17a32.69,32.69,0,0,1,3.8-6.15,12.73,12.73,0,0,1,3.2-3.11c.25-.12.81-.33,1.12,0s-.77,1.38-1.84,2.54-5.06,5.94-5.56,6.47S132.2,28.23,132.63,27.19Zm-27,0A32.72,32.72,0,0,1,109.41,21a12.66,12.66,0,0,1,3.2-3.11c.25-.12.81-.33,1.12,0s-.77,1.38-1.84,2.54-5.07,5.94-5.56,6.47S105.17,28.23,105.61,27.19Zm-19.23.32A19,19,0,0,1,89,22.29a.81.81,0,0,1,.8-.21c.5.13.39.45.13.84s-2.58,4.15-3,4.7S86.18,28.48,86.38,27.5ZM63.89,25.06a12.59,12.59,0,0,1-4.71,5.08c-2.73,1.46-2.4.56-1.62-.83s2.33-2.93,6-4.59C63.55,24.72,64.23,24.38,63.89,25.06Zm13.26,4.67a17.29,17.29,0,0,0-1.06,4.76c-.19,2.58-.82,3.31-1.9,3.22S71.8,35.5,73,32.34A5,5,0,0,1,76.33,29C76.59,29,77.39,28.88,77.15,29.73Zm46.46.12a19.15,19.15,0,0,0-1.31,4.49c-.36,2.34-.49,3.3-1.93,3.26s-1.76-2.59-1.14-4.73A5.53,5.53,0,0,1,122.8,29S124,28.77,123.61,29.85Zm34.12,4.66c.06-.83.72-4.3,3.57-5.38,0,0,.83-.3,1.07.36a5.62,5.62,0,0,1-.72,3.39,6.06,6.06,0,0,1-3.35,2.77C157.7,35.84,157.66,35.33,157.72,34.51Z" style="fill:#e43f26"/></g></g></svg>